# xmcd CD database file
#
# Track frame offsets:
#	182
#	11687
#	27252
#	43950
#	57730
#	71715
#	86290
#	100832
#	116015
#	129600
#	141162
#	154720
#	169610
#
# Disc length: 2445 seconds
#
# Revision: 0
# Processed by: cddbd v1.4PL0 Copyright (c) Steve Scherf et al.
# Submitted via: CDex 1.50beta8
#
DISCID=b3098b0d
DTITLE=Suzanne Klee - California Blue
DYEAR=1990
DGENRE=Country
TTITLE0=bright lights and country music
TTITLE1=do you know where your man is
TTITLE2=walkin on the moon
TTITLE3=you take me for granted
TTITLE4=banks of the ohio
TTITLE5=rose of my heart
TTITLE6=if you love me right
TTITLE7=disie road
TTITLE8=almost persuaded
TTITLE9=blue from your little white lies
TTITLE10=was it ever good
TTITLE11=california blue
TTITLE12=whites of your eyes
EXTD=YEAR: 1990
EXTT0=
EXTT1=
EXTT2=
EXTT3=
EXTT4=
EXTT5=
EXTT6=
EXTT7=
EXTT8=
EXTT9=
EXTT10=
EXTT11=
EXTT12=
PLAYORDER=
